<svg width="177" height="33" viewBox="0 0 177 33" fill="none" xmlns="http://www.w3.org/2000/svg">
<g id="Layer_1" clip-path="url(#clip0_315_1706)">
<path id="Vector" d="M40.8894 22.147L43.915 21.6016C44.0191 22.1709 44.2727 22.6119 44.678 22.9248C45.0833 23.2355 45.5796 23.392 46.1648 23.392C46.75 23.392 47.2073 23.2529 47.5866 22.977C47.9658 22.701 48.1544 22.3556 48.1544 21.9406C48.1544 21.5256 47.9637 21.2149 47.5866 20.9563C47.2766 20.7151 46.7239 20.437 45.9307 20.1263L44.7928 19.6853C43.707 19.2703 42.8617 18.6923 42.2592 17.9492C41.6566 17.2061 41.3532 16.3327 41.3532 15.3311C41.3532 14.5184 41.5591 13.7797 41.9731 13.1149C42.3871 12.45 42.9549 11.9307 43.681 11.5592C44.4049 11.1876 45.1981 11.0008 46.0607 11.0008C47.372 11.0008 48.4882 11.3723 49.4093 12.1154C50.3326 12.8585 50.8528 13.8362 50.9742 15.0443L48.1046 15.5896C48.0179 15.1399 47.8076 14.764 47.4717 14.462C47.1357 14.1599 46.7261 14.0079 46.2428 14.0079C45.7942 14.0079 45.4192 14.1382 45.1179 14.3968C44.8167 14.6553 44.665 14.9747 44.665 15.3571C44.665 15.7895 44.8123 16.1524 45.1049 16.4457C45.3628 16.7042 45.8635 16.991 46.6047 17.3017L47.6646 17.7167C48.9238 18.2013 49.8926 18.7792 50.5732 19.4528C51.2537 20.1263 51.594 21.0085 51.594 22.097C51.594 22.8922 51.3621 23.6179 50.8961 24.2741C50.4301 24.9303 49.7973 25.4496 48.9953 25.8298C48.1934 26.21 47.3091 26.3991 46.3447 26.3991C44.9315 26.3991 43.7156 26.0188 42.6992 25.2584C41.6827 24.4979 41.078 23.4615 40.8894 22.147Z" fill="#1B2130"/>
<path id="Vector_2" d="M53.7939 5.29514H57.2336V13.0997C57.7342 12.3913 58.3671 11.8634 59.1343 11.5179C59.9016 11.1724 60.7425 10.9986 61.655 10.9986C63.2241 10.9986 64.4834 11.4136 65.4305 12.2436C66.0157 12.7455 66.4644 13.3539 66.7765 14.0709C67.0864 14.7879 67.2424 15.5875 67.2424 16.4696V26.0362H63.8028V17.015C63.8028 16.1502 63.5232 15.4723 62.9619 14.9791C62.4027 14.4859 61.6463 14.2404 60.6992 14.2404C59.6133 14.2404 58.7637 14.5424 58.1525 15.1486C57.5413 15.7526 57.2336 16.626 57.2336 17.7667V26.0362H53.7939V5.29514Z" fill="#1B2130"/>
<path id="Vector_3" d="M70.3461 22.5881C69.6569 21.4126 69.3123 20.1155 69.3123 18.6988C69.3123 17.2822 69.6569 15.9851 70.3461 14.8096C71.0353 13.6341 71.9759 12.7042 73.1658 12.022C74.3557 11.3397 75.6648 10.9986 77.0974 10.9986C78.5301 10.9986 79.8391 11.3397 81.029 12.022C82.2189 12.7042 83.1617 13.6341 83.8618 14.8096C84.5597 15.9851 84.9086 17.2822 84.9086 18.6988C84.9086 20.1155 84.5597 21.4126 83.8618 22.5881C83.1639 23.7635 82.2189 24.6934 81.029 25.3757C79.8391 26.0579 78.5301 26.3991 77.0974 26.3991C75.6648 26.3991 74.3557 26.0579 73.1658 25.3757C71.9759 24.6934 71.0375 23.7635 70.3461 22.5881ZM80.8578 20.9281C81.2458 20.2545 81.4408 19.5114 81.4408 18.6988C81.4408 17.8862 81.2458 17.1431 80.8578 16.4696C80.4699 15.796 79.9432 15.2594 79.28 14.8617C78.6168 14.4641 77.8885 14.2664 77.0953 14.2664C76.302 14.2664 75.5738 14.4641 74.9106 14.8617C74.2473 15.2594 73.7207 15.796 73.3327 16.4696C72.9448 17.1431 72.7519 17.8862 72.7519 18.6988C72.7519 19.5114 72.9469 20.2545 73.3327 20.9281C73.7207 21.6016 74.2473 22.1383 74.9106 22.5359C75.5738 22.9335 76.302 23.1312 77.0953 23.1312C77.8885 23.1312 78.6168 22.9313 79.28 22.5359C79.9432 22.1383 80.4699 21.6016 80.8578 20.9281Z" fill="#1B2130"/>
<path id="Vector_4" d="M90.5439 26.0362H87.1042V5.29514H90.5439V13.4364C91.7164 11.8112 93.3809 10.9986 95.5353 10.9986C96.8964 10.9986 98.1166 11.331 99.1938 11.9959C100.271 12.6608 101.121 13.5777 101.74 14.7444C102.36 15.9112 102.672 17.2301 102.672 18.6988C102.672 20.1676 102.362 21.4865 101.74 22.6532C101.118 23.82 100.271 24.7369 99.1938 25.4018C98.1166 26.0666 96.8964 26.3991 95.5353 26.3991C93.3809 26.3991 91.7164 25.5865 90.5439 23.9612V26.0362ZM98.652 20.9281C99.0399 20.2545 99.2328 19.5114 99.2328 18.6988C99.2328 17.8862 99.0378 17.1431 98.652 16.4696C98.264 15.796 97.7373 15.2594 97.0741 14.8618C96.4109 14.4641 95.6827 14.2664 94.8894 14.2664C94.0962 14.2664 93.3679 14.4641 92.7047 14.8618C92.0415 15.2594 91.5148 15.796 91.1269 16.4696C90.7389 17.1431 90.5439 17.8862 90.5439 18.6988C90.5439 19.5114 90.7389 20.2545 91.1269 20.9281C91.5148 21.6016 92.0415 22.1383 92.7047 22.5359C93.3679 22.9335 94.0962 23.1313 94.8894 23.1313C95.6827 23.1313 96.4109 22.9314 97.0741 22.5359C97.7373 22.1405 98.264 21.6016 98.652 20.9281Z" fill="#1B2130"/>
<path id="Vector_5" d="M105.182 22.6532C104.528 21.4865 104.2 20.1676 104.2 18.6988C104.2 17.23 104.528 15.9112 105.182 14.7444C105.837 13.5777 106.743 12.6608 107.898 11.9959C109.053 11.331 110.347 10.9986 111.778 10.9986C113.208 10.9986 114.502 11.331 115.657 11.9959C116.812 12.6608 117.718 13.5777 118.373 14.7444C119.027 15.9112 119.357 17.23 119.357 18.6988C119.357 19.1312 119.322 19.5114 119.253 19.8395H107.77C107.941 20.8933 108.39 21.7407 109.114 22.3795C109.838 23.0183 110.726 23.3398 111.778 23.3398C112.415 23.3398 113.015 23.2051 113.574 22.9379C114.133 22.6706 114.586 22.2947 114.931 21.8102H118.733C118.113 23.2095 117.181 24.3241 115.939 25.1541C114.697 25.9841 113.31 26.3991 111.775 26.3991C110.345 26.3991 109.051 26.0666 107.896 25.4018C106.741 24.7369 105.835 23.82 105.18 22.6532H105.182ZM114.415 14.953C113.691 14.3229 112.811 14.0057 111.778 14.0057C110.744 14.0057 109.864 14.3207 109.14 14.953C108.416 15.5831 107.959 16.4174 107.77 17.4538H115.787C115.596 16.4174 115.141 15.5831 114.417 14.953H114.415Z" fill="#6F23D9"/>
<path id="Vector_6" d="M126.854 19.8917L130.707 11.3615H134.483L127.19 26.3991H126.492L119.198 11.3615H122.974L126.854 19.8917Z" fill="#6F23D9"/>
<path id="Vector_7" d="M135.285 22.6532C134.63 21.4865 134.303 20.1676 134.303 18.6988C134.303 17.23 134.63 15.9112 135.285 14.7444C135.939 13.5777 136.845 12.6608 138.001 11.9959C139.156 11.331 140.45 10.9986 141.88 10.9986C143.311 10.9986 144.604 11.331 145.76 11.9959C146.915 12.6608 147.821 13.5777 148.475 14.7444C149.13 15.9112 149.457 17.23 149.457 18.6988C149.457 19.1312 149.423 19.5114 149.353 19.8395H137.87C138.044 20.8933 138.49 21.7407 139.216 22.3795C139.942 23.0183 140.829 23.3398 141.88 23.3398C142.517 23.3398 143.118 23.2051 143.677 22.9379C144.238 22.6706 144.689 22.2947 145.034 21.8102H148.835C148.215 23.2095 147.283 24.3241 146.041 25.1541C144.8 25.9841 143.412 26.3991 141.878 26.3991C140.447 26.3991 139.154 26.0666 137.998 25.4018C136.843 24.7369 135.937 23.82 135.283 22.6532H135.285ZM144.518 14.953C143.794 14.3229 142.914 14.0057 141.88 14.0057C140.846 14.0057 139.966 14.3207 139.242 14.953C138.519 15.5831 138.061 16.4174 137.873 17.4538H145.89C145.699 16.4174 145.244 15.5831 144.52 14.953H144.518Z" fill="#6F23D9"/>
<path id="Vector_8" d="M151.631 11.3615H155.071V13.0975C155.571 12.3892 156.204 11.8612 156.971 11.5157C157.739 11.1702 158.58 10.9964 159.492 10.9964C160.838 10.9964 161.95 11.3158 162.828 11.9568C163.552 12.4239 164.109 13.0453 164.497 13.8232C164.885 14.601 165.08 15.4832 165.08 16.4674V26.034H161.64V17.0128C161.64 16.148 161.36 15.4701 160.799 14.9769C160.238 14.4837 159.483 14.2382 158.536 14.2382C157.45 14.2382 156.601 14.5402 155.99 15.1464C155.378 15.7504 155.071 16.6239 155.071 17.7645V26.034H151.631V11.3615Z" fill="#6F23D9"/>
<path id="Vector_9" d="M169.785 23.6114C169.284 22.738 169.035 21.732 169.035 20.5913V14.6532H166.139V14.4207L169.035 11.3614V8.63899L172.243 6.74652H172.475V11.3614H177V14.6532H172.475V20.5391C172.475 21.5408 172.776 22.2773 173.381 22.7423C173.847 23.1052 174.449 23.2877 175.19 23.2877C175.778 23.2877 176.38 23.1834 177 22.977V26.0623C176.311 26.2861 175.587 26.3991 174.828 26.3991C173.725 26.3991 172.733 26.1535 171.855 25.6603C170.975 25.1671 170.286 24.4849 169.785 23.6114Z" fill="#6F23D9"/>
<path id="Vector_10" d="M16.1447 0.315186C7.22816 0.315186 0 7.56131 0 16.5H16.1447V0.315186Z" fill="#CDA7F2"/>
<path id="Vector_11" d="M0 16.5C0 25.4387 7.22816 32.6848 16.1447 32.6848V16.5H0Z" fill="#6F23D9"/>
<path id="Vector_12" d="M16.1448 32.6848C25.0613 32.6848 32.2895 25.4387 32.2895 16.5H16.1448V32.6848Z" fill="#4703A6"/>
<path id="Vector_13" d="M16.1448 0.315186C16.1448 9.25388 23.3729 16.5 32.2895 16.5C32.2895 7.56131 25.0613 0.315186 16.1448 0.315186Z" fill="#B679F2"/>
</g>
<defs>
<clipPath id="clip0_315_1706">
<rect width="177" height="32.3696" fill="white" transform="translate(0 0.315186)"/>
</clipPath>
</defs>
</svg>
