<svg width="30" height="30" viewBox="0 0 30 30" fill="none" xmlns="http://www.w3.org/2000/svg">
<path d="M7.01056 1.57956C7.01056 0.699662 6.29281 0.624878 5.40843 0.624878C4.52246 0.624878 3.80631 0.699662 3.80631 1.57956V14.9452H7.01056V1.57956ZM3.80631 28.3108C3.80631 29.1875 4.52246 29.2655 5.40843 29.2655C6.29281 29.2655 7.01056 29.1875 7.01056 28.3108V22.9009H3.80631V28.3108ZM9.25194 16.5363H1.56173C0.675749 16.5363 0.602051 17.2492 0.602051 18.1275V19.7186C0.602051 20.5985 0.675749 21.3098 1.56173 21.3098H9.25354C10.1347 21.3098 10.2148 20.5985 10.2148 19.7186V18.1275C10.2148 17.2492 10.1347 16.5363 9.25194 16.5363ZM28.4775 18.1275H20.7857C19.9013 18.1275 19.8276 18.8403 19.8276 19.7186V21.3098C19.8276 22.1897 19.9013 22.9009 20.7873 22.9009H28.4791C29.3602 22.9009 29.4404 22.1897 29.4404 21.3098V19.7186C29.4404 18.8403 29.3602 18.1275 28.4775 18.1275ZM19.8276 10.1717C19.8276 9.29344 19.7475 8.5806 18.8647 8.5806H11.1745C10.2885 8.5806 10.2148 9.29344 10.2148 10.1717V11.7629C10.2148 12.6428 10.2885 13.354 11.1745 13.354H18.8663C19.7475 13.354 19.8276 12.6428 19.8276 11.7629V10.1717ZM16.6233 1.57956C16.6233 0.699662 15.9056 0.624878 15.0212 0.624878C14.1352 0.624878 13.4191 0.699662 13.4191 1.57956V6.98946H16.6233V1.57956ZM13.4191 28.3108C13.4191 29.1875 14.1352 29.2655 15.0212 29.2655C15.9056 29.2655 16.6233 29.1875 16.6233 28.3108V14.9452H13.4191V28.3108ZM26.2361 1.57956C26.2361 0.699662 25.5183 0.624878 24.634 0.624878C23.748 0.624878 23.0318 0.699662 23.0318 1.57956V16.5363H26.2361V1.57956ZM23.0318 28.3108C23.0318 29.1875 23.748 29.2655 24.634 29.2655C25.5183 29.2655 26.2361 29.1875 26.2361 28.3108V24.4921H23.0318V28.3108Z" fill="#1B2130"/>
</svg>
