<svg width="33" height="32" viewBox="0 0 33 32" fill="none" xmlns="http://www.w3.org/2000/svg">
<path d="M20.3934 15.9318C20.0738 16.263 19.6618 16.0383 19.5638 15.6532C18.9601 13.2877 18.3567 10.9179 17.7534 8.54384C17.7505 8.53215 17.7428 8.52199 17.7319 8.51546C17.721 8.50893 17.7077 8.50653 17.6948 8.50877C16.3475 8.74995 14.9902 8.92098 13.6227 9.02187C13.6125 9.02253 13.603 9.02678 13.5961 9.03378C13.5892 9.04077 13.5854 9.04998 13.5854 9.05954C13.5859 11.5817 13.5861 14.0808 13.5861 16.5566C13.5861 17.0645 13.3556 17.4451 12.7799 17.1119C11.706 16.4902 10.6335 15.869 9.56229 15.2485C9.55192 15.2425 9.53997 15.2393 9.52778 15.2393C9.51559 15.2393 9.50364 15.2425 9.49327 15.2485C8.48145 15.837 7.46734 16.4259 6.45092 17.0152C6.13758 17.1977 5.80422 17.3899 5.56403 17.0463C5.5056 16.9623 5.47638 16.8426 5.47638 16.6872C5.47638 14.0528 5.47638 11.4265 5.47638 8.80818C5.47637 8.79398 5.47092 8.78025 5.46104 8.76952C5.45115 8.75878 5.43749 8.75176 5.42254 8.74973C4.19217 8.58043 2.97951 8.35224 1.78457 8.06517C1.03502 7.88461 1.34009 7.08443 1.85152 7.20329C8.46903 8.73912 14.9906 8.59147 21.4163 6.76034C24.6249 5.8465 28.0213 4.33708 29.8441 1.57285C30.1996 1.03377 30.9595 1.46958 30.624 1.99956C29.4528 3.85451 27.5734 5.21844 25.5332 6.15111C25.5176 6.15823 25.505 6.17016 25.4976 6.18494C25.4902 6.19971 25.4884 6.21643 25.4925 6.2323C26.133 8.74367 26.776 11.2604 27.4216 13.7826C27.5548 14.3009 27.3243 14.6172 26.7321 14.4347C25.5422 14.068 24.3652 13.703 23.2011 13.3397C23.1583 13.3263 23.121 13.3347 23.0893 13.365C22.1844 14.236 21.2292 15.0654 20.3934 15.9318ZM20.3182 14.7796C21.0921 14.0379 21.8568 13.3113 22.6123 12.5999C22.7773 12.444 22.936 12.3538 23.1576 12.4213C24.2255 12.7491 25.2838 13.0766 26.3325 13.404C26.3651 13.4139 26.3776 13.4033 26.3697 13.3722L24.6422 6.60186C24.6353 6.57502 24.6183 6.56679 24.5911 6.57718C22.689 7.33059 20.7279 7.90929 18.708 8.31327C18.6992 8.31502 18.6908 8.31842 18.6834 8.32327C18.676 8.32812 18.6698 8.33432 18.6649 8.34152C18.6601 8.34872 18.6569 8.35676 18.6554 8.36518C18.6539 8.3736 18.6541 8.38223 18.6562 8.39056L20.2823 14.7705C20.2832 14.774 20.2851 14.7771 20.2878 14.7796C20.2905 14.7821 20.2938 14.7839 20.2974 14.7849C20.3011 14.7858 20.3049 14.7858 20.3085 14.7849C20.3122 14.7839 20.3155 14.7821 20.3182 14.7796Z" fill="#1B2130"/>
<path d="M7.66205 27.5618C7.62471 27.5252 7.58162 27.5158 7.53277 27.5336C6.40681 27.9525 5.26426 28.3738 4.10512 28.7974C3.6039 28.9812 3.30386 28.7044 3.40964 28.1789C3.95533 25.4711 4.50333 22.7581 5.05363 20.04C5.0565 20.0253 5.0541 20.01 5.04687 19.997C5.03964 19.9839 5.02806 19.9739 5.01423 19.9688C3.89104 19.5556 2.78836 19.081 1.70619 18.5452C0.98927 18.1909 1.43449 17.3766 2.00553 17.6583C8.22963 20.7254 15.2474 21.9102 22.1213 20.9135C24.9109 20.5084 27.7467 19.6314 29.7647 17.5203C29.9072 17.3714 30.0305 17.2822 30.1346 17.2526C30.5245 17.1413 30.8813 17.6689 30.6158 17.9648C29.0513 19.704 27.0146 20.724 24.7927 21.3178C24.7807 21.321 24.7702 21.3282 24.7628 21.3381C24.7553 21.3481 24.7515 21.3603 24.7519 21.3728C24.8427 24.1059 24.9321 26.8315 25.0201 29.5497C25.0402 30.1667 24.7526 30.4464 24.1857 30.1139C23.1376 29.4992 22.0872 28.8882 21.0346 28.281C21.0143 28.2693 20.9947 28.27 20.9758 28.2831C19.9941 28.9509 19.0119 29.6171 18.0293 30.2816C17.8321 30.4149 17.6804 30.4861 17.5744 30.495C17.2599 30.5225 17.1098 30.2576 17.0995 29.9561C17.0156 27.4963 16.9331 25.0362 16.852 22.5759C16.8469 22.4219 16.8414 22.3066 16.8354 22.23C16.8335 22.2037 16.8195 22.1901 16.7932 22.1892C15.4668 22.1619 14.1456 22.0659 12.8298 21.9011C12.7948 21.8964 12.7736 21.9116 12.7662 21.9469C12.2454 24.5307 11.722 27.1232 11.1962 29.7244C11.0641 30.3781 10.6991 30.4915 10.2241 30.0364C9.37794 29.2263 8.52391 28.4015 7.66205 27.5618ZM7.57355 26.5214C7.69938 26.4749 7.89848 26.508 8.01463 26.6193C8.8069 27.3782 9.60032 28.1422 10.3949 28.9115C10.3971 28.9137 10.3999 28.9153 10.4029 28.916C10.4059 28.9167 10.4091 28.9166 10.4121 28.9157C10.4151 28.9148 10.4177 28.913 10.4198 28.9107C10.4219 28.9083 10.4233 28.9054 10.4239 28.9023L11.8578 21.8018C11.8589 21.7964 11.8589 21.7909 11.8578 21.7856C11.8568 21.7802 11.8547 21.7752 11.8516 21.7707C11.8486 21.7662 11.8447 21.7624 11.8401 21.7595C11.8356 21.7566 11.8306 21.7547 11.8253 21.7538C9.83699 21.4401 7.88788 20.9616 5.97795 20.3182C5.97267 20.3165 5.9671 20.3159 5.9616 20.3165C5.9561 20.3171 5.95079 20.3189 5.94603 20.3217C5.94126 20.3244 5.93715 20.3282 5.93395 20.3327C5.93076 20.3372 5.92855 20.3424 5.92748 20.3478L4.45978 27.6301C4.45875 27.6351 4.45903 27.6402 4.46058 27.645C4.46212 27.6499 4.46488 27.6541 4.46856 27.6575C4.47224 27.6608 4.47671 27.663 4.48149 27.6639C4.48627 27.6648 4.49119 27.6643 4.49573 27.6625C5.51752 27.2821 6.54346 26.9018 7.57355 26.5214Z" fill="#1B2130"/>
</svg>
