<svg width="14" height="15" viewBox="0 0 14 15" fill="none" xmlns="http://www.w3.org/2000/svg">
<path d="M6.95022 0.355957C3.15527 0.355957 0.0678711 3.44336 0.0678711 7.23831C0.0678711 11.0333 3.15527 14.1207 6.95022 14.1207C10.7452 14.1207 13.8326 11.0333 13.8326 7.23831C13.8326 3.44336 10.7452 0.355957 6.95022 0.355957ZM11.5006 3.52978C12.3194 4.5301 12.8152 5.8042 12.8281 7.19172C12.6343 7.15073 10.6908 6.75652 8.73472 7.00251C8.5751 6.61285 8.42444 6.27006 8.21808 5.84766C10.3916 4.96025 11.3767 3.69742 11.5006 3.52978ZM10.8471 2.84998C10.7414 3.00058 9.85646 4.18998 7.76612 4.97349C6.80281 3.20361 5.73513 1.74966 5.57264 1.53209C7.43687 1.08271 9.4014 1.56733 10.8471 2.84998ZM4.45096 1.92724C4.60595 2.13979 5.65642 3.59555 6.63047 5.32704C3.88067 6.05726 1.45872 6.04675 1.1958 6.04328C1.57699 4.21909 2.80633 2.70298 4.45096 1.92724ZM1.07164 7.24727C1.07164 7.18716 1.07283 7.12733 1.07464 7.06764C1.33184 7.07291 4.18058 7.10963 7.11629 6.23104C7.28457 6.5604 7.44534 6.89472 7.59289 7.22868C5.46716 7.82742 3.5358 9.54667 2.5829 11.1779C1.64399 10.1357 1.07164 8.75715 1.07164 7.24727ZM3.3419 11.8849C3.95596 10.6296 5.62246 9.00924 7.99246 8.20073C8.81778 10.3454 9.1591 12.1429 9.24652 12.6587C7.35631 13.4638 5.08339 13.2429 3.3419 11.8849ZM10.2348 12.1205C10.1746 11.7629 9.86165 10.042 9.09277 7.9291C10.9349 7.63421 12.5534 8.11692 12.7545 8.18039C12.4925 9.81608 11.5536 11.2287 10.2348 12.1205Z" fill="#1B2130"/>
</svg>
