<svg width="33" height="32" viewBox="0 0 33 32" fill="none" xmlns="http://www.w3.org/2000/svg">
<g clip-path="url(#clip0_302_8437)">
<path d="M2.53265 0H29.4741C30.8972 0.0882588 31.9317 1.13804 32.0362 2.55267V29.3094C31.8747 30.7495 30.9204 31.7023 29.4509 31.8229H2.55581C1.09762 31.6781 0.155117 30.7557 -0.00634766 29.3019V2.52905C0.0956628 1.13991 1.13517 0.106905 2.53265 0ZM2.21598 1.12561C0.790961 1.54702 1.05068 3.09714 1.05882 4.19727C1.05898 4.20919 1.06387 4.22057 1.07242 4.22895C1.08097 4.23732 1.09249 4.24202 1.1045 4.24202H30.926C30.9356 4.24202 30.9448 4.23833 30.9517 4.23172C30.9586 4.22511 30.9626 4.2161 30.9629 4.20659C30.9846 3.68574 30.984 3.16572 30.961 2.64652C30.9297 1.94169 30.5486 1.36863 29.8702 1.15109C29.6745 1.08811 29.3418 1.05662 28.872 1.05662C20.2622 1.05662 11.6525 1.05683 3.0427 1.05724C2.64593 1.05724 2.37035 1.08003 2.21598 1.12561ZM1.12203 29.5941C1.32354 30.3039 1.97316 30.7675 2.71602 30.7675C11.4555 30.7667 20.1951 30.7665 28.9346 30.7669C29.3435 30.7669 29.6453 30.7373 29.8402 30.678C30.3717 30.516 30.7188 30.1731 30.8816 29.6494C30.9425 29.4521 30.9729 29.1368 30.9729 28.7034C30.9721 20.908 30.9719 13.117 30.9723 5.33034C30.9723 5.32193 30.9689 5.31387 30.963 5.30792C30.957 5.30198 30.9488 5.29864 30.9404 5.29864H1.08948C1.08529 5.29864 1.08114 5.29944 1.07727 5.301C1.0734 5.30256 1.06988 5.30485 1.06691 5.30774C1.06395 5.31063 1.0616 5.31405 1.06 5.31782C1.05839 5.32159 1.05757 5.32563 1.05757 5.32971C1.05715 13.1375 1.05736 20.9455 1.05819 28.7537C1.05819 29.1656 1.07947 29.4457 1.12203 29.5941Z" fill="#1B2130"/>
<path d="M3.19677 3.17548C3.48814 3.17548 3.72434 2.9409 3.72434 2.65152C3.72434 2.36215 3.48814 2.12756 3.19677 2.12756C2.90539 2.12756 2.66919 2.36215 2.66919 2.65152C2.66919 2.9409 2.90539 3.17548 3.19677 3.17548Z" fill="#1B2130"/>
<path d="M5.33397 3.1742C5.62534 3.1742 5.86155 2.93962 5.86155 2.65024C5.86155 2.36087 5.62534 2.12628 5.33397 2.12628C5.0426 2.12628 4.8064 2.36087 4.8064 2.65024C4.8064 2.93962 5.0426 3.1742 5.33397 3.1742Z" fill="#1B2130"/>
<path d="M7.46923 3.17481C7.7606 3.17481 7.9968 2.94023 7.9968 2.65085C7.9968 2.36148 7.7606 2.12689 7.46923 2.12689C7.17785 2.12689 6.94165 2.36148 6.94165 2.65085C6.94165 2.94023 7.17785 3.17481 7.46923 3.17481Z" fill="#1B2130"/>
<path d="M18.154 2.12817H13.8746C13.5873 2.12817 13.3545 2.35942 13.3545 2.64467V2.66705C13.3545 2.95231 13.5873 3.18355 13.8746 3.18355H18.154C18.4412 3.18355 18.6741 2.95231 18.6741 2.66705V2.64467C18.6741 2.35942 18.4412 2.12817 18.154 2.12817Z" fill="#1B2130"/>
<path d="M13.9872 9.01859C14.2405 8.50934 14.496 8.00175 14.7539 7.49581C14.9621 7.08684 15.0862 6.85646 15.1262 6.80466C15.6864 6.08243 16.6558 6.29935 17.0507 7.05949C17.3895 7.71211 17.7178 8.36162 18.0357 9.00802C18.0512 9.03951 18.0764 9.05775 18.1115 9.06272C18.7602 9.14973 19.4005 9.24152 20.0321 9.33806C20.4614 9.40332 20.7781 9.42135 21.071 9.75885C21.4634 10.2113 21.4296 10.8652 20.9915 11.2822C20.4429 11.8056 19.8951 12.3295 19.3481 12.8541C19.3412 12.8609 19.3359 12.8692 19.3329 12.8784C19.3298 12.8875 19.329 12.8974 19.3306 12.907C19.4499 13.5857 19.5678 14.2621 19.6842 14.9363C19.7326 15.2156 19.7405 15.4308 19.7079 15.5821C19.584 16.1613 18.9463 16.5678 18.358 16.4093C18.2783 16.3882 18.0777 16.2958 17.756 16.1321C17.1836 15.8417 16.6128 15.5475 16.0437 15.2495C16.035 15.245 16.0254 15.2426 16.0155 15.2426C16.0057 15.2426 15.9961 15.245 15.9874 15.2495C15.402 15.5533 14.8177 15.8549 14.2344 16.1545C13.8911 16.3306 13.6363 16.4257 13.4703 16.4398C12.949 16.4845 12.427 16.0923 12.3175 15.5758C12.2875 15.4341 12.2964 15.2236 12.3444 14.9444C12.4612 14.2656 12.5793 13.5871 12.6986 12.9088C12.7024 12.8881 12.6968 12.8703 12.6817 12.8554C12.224 12.4166 11.7668 11.979 11.3099 11.5427C11.0149 11.2609 10.8343 11.0502 10.7679 10.9106C10.542 10.4332 10.7548 9.77749 11.2336 9.51831C11.3596 9.44994 11.5709 9.39566 11.8675 9.35547C12.5589 9.26099 13.2496 9.1603 13.9397 9.0534C13.9614 9.05008 13.9772 9.03848 13.9872 9.01859ZM11.8193 10.4755C12.4201 11.0759 13.0184 11.6894 13.623 12.291C13.7982 12.4657 13.8308 12.6192 13.7926 12.8504C13.6557 13.6787 13.5195 14.5014 13.3839 15.3185C13.3828 15.3249 13.3836 15.3315 13.386 15.3374C13.3885 15.3434 13.3926 15.3486 13.3979 15.3524C13.4031 15.3562 13.4093 15.3585 13.4158 15.359C13.4223 15.3595 13.4288 15.3582 13.4346 15.3552C14.1739 14.9682 14.9185 14.599 15.6682 14.2476C15.9129 14.1326 15.9911 14.0699 16.2227 14.1805C17.0125 14.5584 17.7927 14.9539 18.5633 15.367C18.5679 15.3695 18.5731 15.3706 18.5783 15.3704C18.5835 15.3701 18.5886 15.3683 18.5928 15.3654C18.5971 15.3624 18.6005 15.3583 18.6026 15.3536C18.6047 15.3488 18.6054 15.3436 18.6046 15.3384C18.4807 14.5159 18.3587 13.6901 18.2385 12.861C18.2116 12.6745 18.2216 12.4625 18.3493 12.3407C18.983 11.7324 19.6155 11.1285 20.2468 10.5289C20.2498 10.5261 20.2519 10.5225 20.2529 10.5186C20.2539 10.5146 20.2538 10.5105 20.2526 10.5066C20.2513 10.5027 20.249 10.4992 20.2459 10.4966C20.2428 10.494 20.239 10.4922 20.2349 10.4916C19.3871 10.3541 18.5429 10.2146 17.7022 10.0733C17.5413 10.0466 17.3367 9.97763 17.2691 9.84835C16.8577 9.0536 16.4532 8.26238 16.0556 7.47468C16.0531 7.46952 16.0491 7.46519 16.0442 7.46216C16.0393 7.45914 16.0336 7.45754 16.0278 7.45754C16.0219 7.45754 16.0162 7.45914 16.0112 7.46216C16.0061 7.46519 16.002 7.46952 15.9993 7.47468C15.6142 8.2168 15.2272 8.95809 14.8384 9.69856C14.7545 9.85891 14.6156 10.0323 14.451 10.0566C13.5806 10.1846 12.7089 10.3085 11.8356 10.4282C11.8305 10.429 11.8256 10.4311 11.8216 10.4344C11.8176 10.4377 11.8145 10.442 11.8129 10.4469C11.8112 10.4518 11.8109 10.4571 11.812 10.4621C11.8132 10.4671 11.8157 10.4718 11.8193 10.4755Z" fill="#1B2130"/>
<path d="M26.164 19.6059C26.164 19.8912 26.0498 20.1649 25.8467 20.3667C25.6435 20.5684 25.368 20.6818 25.0807 20.6818H6.94782C6.6605 20.6818 6.38496 20.5684 6.1818 20.3667C5.97864 20.1649 5.8645 19.8912 5.8645 19.6059V18.5729C5.8645 18.2876 5.97864 18.0139 6.1818 17.8121C6.38496 17.6104 6.6605 17.497 6.94782 17.497H25.0807C25.368 17.497 25.6435 17.6104 25.8467 17.8121C26.0498 18.0139 26.164 18.2876 26.164 18.5729V19.6059ZM25.0894 18.5953C25.0894 18.5918 25.0887 18.5883 25.0874 18.585C25.086 18.5818 25.084 18.5789 25.0815 18.5764C25.079 18.5739 25.0761 18.5719 25.0728 18.5706C25.0695 18.5692 25.066 18.5685 25.0625 18.5685H6.96722C6.96008 18.5685 6.95324 18.5714 6.94819 18.5764C6.94314 18.5814 6.94031 18.5882 6.94031 18.5953V19.5984C6.94031 19.6055 6.94314 19.6123 6.94819 19.6173C6.95324 19.6223 6.96008 19.6252 6.96722 19.6252H25.0625C25.066 19.6252 25.0695 19.6245 25.0728 19.6231C25.0761 19.6218 25.079 19.6198 25.0815 19.6173C25.084 19.6149 25.086 19.6119 25.0874 19.6087C25.0887 19.6054 25.0894 19.6019 25.0894 19.5984V18.5953Z" fill="#1B2130"/>
<path d="M26.1647 23.8454C26.1647 23.9871 26.1366 24.1274 26.082 24.2583C26.0274 24.3892 25.9474 24.5082 25.8465 24.6084C25.7456 24.7086 25.6259 24.788 25.494 24.8423C25.3622 24.8965 25.221 24.9244 25.0783 24.9244H6.95046C6.80778 24.9244 6.66651 24.8965 6.53469 24.8423C6.40288 24.788 6.28311 24.7086 6.18223 24.6084C6.08134 24.5082 6.00131 24.3892 5.94671 24.2583C5.89212 24.1274 5.86401 23.9871 5.86401 23.8454V22.8186C5.86401 22.5325 5.97848 22.258 6.18223 22.0557C6.38597 21.8533 6.66231 21.7396 6.95046 21.7396H25.0783C25.3664 21.7396 25.6428 21.8533 25.8465 22.0557C26.0503 22.258 26.1647 22.5325 26.1647 22.8186V23.8454ZM25.0902 22.8273C25.0902 22.8229 25.0884 22.8186 25.0852 22.8155C25.0821 22.8123 25.0778 22.8105 25.0733 22.8105H6.95671C6.95223 22.8105 6.94794 22.8123 6.94477 22.8155C6.9416 22.8186 6.93982 22.8229 6.93982 22.8273V23.8504C6.93982 23.8548 6.9416 23.8591 6.94477 23.8622C6.94794 23.8654 6.95223 23.8672 6.95671 23.8672H25.0733C25.0778 23.8672 25.0821 23.8654 25.0852 23.8622C25.0884 23.8591 25.0902 23.8548 25.0902 23.8504V22.8273Z" fill="#1B2130"/>
<path d="M17.0775 27.579C17.0775 27.7872 17.0362 27.9934 16.956 28.1858C16.8758 28.3782 16.7582 28.5529 16.6099 28.7002C16.4617 28.8474 16.2857 28.9642 16.092 29.0439C15.8983 29.1236 15.6907 29.1646 15.481 29.1646C15.0576 29.1646 14.6515 28.9975 14.3521 28.7002C14.0527 28.4028 13.8845 27.9995 13.8845 27.579C13.8845 27.1585 14.0527 26.7552 14.3521 26.4579C14.6515 26.1605 15.0576 25.9935 15.481 25.9935C15.6907 25.9935 15.8983 26.0345 16.092 26.1142C16.2857 26.1938 16.4617 26.3106 16.6099 26.4579C16.7582 26.6051 16.8758 26.7799 16.956 26.9723C17.0362 27.1646 17.0775 27.3708 17.0775 27.579ZM16.0105 27.5784C16.0105 27.4388 15.9546 27.3049 15.8552 27.2061C15.7558 27.1074 15.621 27.052 15.4804 27.052C15.3398 27.052 15.205 27.1074 15.1056 27.2061C15.0062 27.3049 14.9503 27.4388 14.9503 27.5784C14.9503 27.718 15.0062 27.8519 15.1056 27.9507C15.205 28.0494 15.3398 28.1048 15.4804 28.1048C15.621 28.1048 15.7558 28.0494 15.8552 27.9507C15.9546 27.8519 16.0105 27.718 16.0105 27.5784Z" fill="#1B2130"/>
<path d="M18.7149 28.7842C17.8055 28.0104 18.049 26.4919 19.1974 26.0886C19.3718 26.0272 19.653 25.9964 20.041 25.996C21.1354 25.9951 22.2298 25.9955 23.3241 25.9972C23.6254 25.9976 23.8575 26.0258 24.0207 26.0817C25.4432 26.5678 25.4388 28.594 24.0057 29.0807C23.8421 29.1362 23.6091 29.1642 23.3066 29.1646C22.0862 29.1662 20.8657 29.1664 19.6449 29.1652C19.3228 29.1648 19.0128 29.0378 18.7149 28.7842ZM24.02 27.5637C24.0199 27.4961 24.0064 27.4292 23.9802 27.3668C23.9541 27.3044 23.9158 27.2477 23.8676 27.2C23.8194 27.1523 23.7622 27.1145 23.6993 27.0888C23.6364 27.063 23.569 27.0498 23.5009 27.0499L19.7434 27.0565C19.606 27.0567 19.4743 27.1111 19.3773 27.2078C19.2803 27.3045 19.2259 27.4355 19.2262 27.572L19.2262 27.5969C19.2263 27.6644 19.2398 27.7313 19.266 27.7937C19.2921 27.8561 19.3304 27.9128 19.3786 27.9605C19.4268 28.0082 19.484 28.046 19.5469 28.0718C19.6098 28.0975 19.6772 28.1107 19.7453 28.1106L23.5028 28.1041C23.6402 28.1038 23.7719 28.0494 23.8689 27.9527C23.9659 27.856 24.0203 27.725 24.0201 27.5885L24.02 27.5637Z" fill="#1B2130"/>
</g>
<defs>
<clipPath id="clip0_302_8437">
<rect width="32.0426" height="31.8229" fill="white" transform="translate(-0.00634766)"/>
</clipPath>
</defs>
</svg>
