<svg width="33" height="32" viewBox="0 0 33 32" fill="none" xmlns="http://www.w3.org/2000/svg">
<g clip-path="url(#clip0_302_8425)">
<path d="M29.9819 17.3864C29.9819 17.5029 29.9588 17.6182 29.9139 17.7258C29.869 17.8334 29.8032 17.9312 29.7203 18.0135C29.6374 18.0959 29.5389 18.1612 29.4306 18.2058C29.3222 18.2504 29.2061 18.2733 29.0888 18.2733H4.08935C3.8525 18.2733 3.62534 18.1799 3.45786 18.0135C3.29038 17.8472 3.19629 17.6216 3.19629 17.3864V1.01127C3.19629 0.776037 3.29038 0.55044 3.45786 0.384107C3.62534 0.217774 3.8525 0.124329 4.08935 0.124329H29.0888C29.2061 0.124329 29.3222 0.14727 29.4306 0.191843C29.5389 0.236416 29.6374 0.301747 29.7203 0.384107C29.8032 0.466467 29.869 0.564242 29.9139 0.671851C29.9588 0.779459 29.9819 0.894793 29.9819 1.01127V17.3864ZM8.38693 10.5699C8.67732 10.5903 8.91138 10.7266 9.08912 10.9789C9.6678 11.8006 10.2461 12.6194 10.8239 13.4353C10.8274 13.4401 10.832 13.4441 10.8373 13.4468C10.8427 13.4496 10.8486 13.451 10.8546 13.451C10.8606 13.451 10.8665 13.4496 10.8719 13.4468C10.8772 13.4441 10.8818 13.4401 10.8853 13.4353C12.2233 11.5926 13.5601 9.75449 14.8956 7.92094C15.2642 7.41563 15.9833 7.51259 16.3325 7.99242C17.6814 9.84378 19.0256 11.6922 20.3653 13.5378C20.3682 13.5418 20.372 13.545 20.3764 13.5472C20.3808 13.5495 20.3856 13.5507 20.3905 13.5508C20.3954 13.5508 20.4002 13.5497 20.4045 13.5476C20.4088 13.5455 20.4126 13.5423 20.4154 13.5384C21.5845 11.9887 22.751 10.4452 23.9151 8.90795C24.3037 8.39455 24.9921 8.52073 25.352 8.99558C26.3036 10.2515 27.253 11.5089 28.2001 12.7677C28.2022 12.7705 28.2051 12.7726 28.2084 12.7736C28.2117 12.7746 28.2152 12.7746 28.2185 12.7735C28.2218 12.7724 28.2246 12.7703 28.2266 12.7674C28.2286 12.7646 28.2296 12.7612 28.2295 12.7578V1.89572C28.2295 1.88748 28.2262 1.87957 28.2204 1.87375C28.2145 1.86792 28.2066 1.86464 28.1983 1.86464H4.97991C4.97161 1.86464 4.96365 1.86792 4.95778 1.87375C4.95191 1.87957 4.94862 1.88748 4.94862 1.89572V14.5752C4.94862 14.6406 4.9676 14.6466 5.00557 14.5932C5.82332 13.44 6.65276 12.2771 7.49387 11.1045C7.7417 10.7589 7.96763 10.5414 8.38693 10.5699ZM10.8214 16.4932C10.8186 16.497 10.8169 16.5014 10.8165 16.5061C10.8161 16.5107 10.817 16.5154 10.8192 16.5196C10.8213 16.5237 10.8246 16.5272 10.8287 16.5295C10.8327 16.5319 10.8374 16.5331 10.8421 16.533H20.3347C20.3394 16.5331 20.344 16.5319 20.3481 16.5295C20.3521 16.5272 20.3554 16.5237 20.3576 16.5196C20.3597 16.5154 20.3607 16.5107 20.3603 16.5061C20.3599 16.5014 20.3582 16.497 20.3553 16.4932L15.6084 9.96643C15.6061 9.96334 15.603 9.96084 15.5996 9.95911C15.5961 9.95738 15.5923 9.95649 15.5884 9.95649C15.5845 9.95649 15.5807 9.95738 15.5772 9.95911C15.5737 9.96084 15.5707 9.96334 15.5683 9.96643L10.8214 16.4932ZM22.5313 16.515C22.5353 16.5205 22.5406 16.5251 22.5467 16.5282C22.5528 16.5313 22.5595 16.533 22.5664 16.533H28.1864C28.1978 16.533 28.2088 16.5285 28.2169 16.5205C28.225 16.5124 28.2295 16.5015 28.2295 16.4901V15.7176C28.2295 15.7083 28.2264 15.6994 28.2208 15.6921L24.6341 10.9441C24.6301 10.9388 24.6249 10.9346 24.6189 10.9316C24.613 10.9287 24.6064 10.9271 24.5997 10.9271C24.5931 10.9271 24.5865 10.9287 24.5805 10.9316C24.5745 10.9346 24.5693 10.9388 24.5653 10.9441L21.4837 15.0239C21.4782 15.0313 21.4753 15.0402 21.4753 15.0494C21.4753 15.0586 21.4782 15.0675 21.4837 15.0749L22.5313 16.515ZM8.35126 12.9734C8.34862 12.9696 8.34507 12.9665 8.34093 12.9643C8.33678 12.9621 8.33217 12.961 8.32748 12.961C8.32279 12.961 8.31818 12.9621 8.31403 12.9643C8.30989 12.9665 8.30634 12.9696 8.3037 12.9734L5.79912 16.4876C5.79598 16.4919 5.79411 16.497 5.79372 16.5023C5.79332 16.5076 5.79442 16.5129 5.79689 16.5176C5.79936 16.5223 5.8031 16.5263 5.8077 16.529C5.81229 16.5317 5.81756 16.5331 5.8229 16.533H8.61661C8.62124 16.5331 8.62582 16.5321 8.62996 16.53C8.6341 16.5279 8.63768 16.5249 8.6404 16.5212L9.76063 14.9816C9.7642 14.9768 9.76611 14.9709 9.76611 14.9649C9.76611 14.9588 9.7642 14.953 9.76063 14.9481L8.35126 12.9734Z" fill="#1B2130"/>
<path d="M12.9555 6.21416C12.9555 6.90552 12.679 7.56855 12.1868 8.05741C11.6945 8.54627 11.0269 8.82091 10.3308 8.82091C9.63467 8.82091 8.96706 8.54627 8.47482 8.05741C7.98259 7.56855 7.70605 6.90552 7.70605 6.21416C7.70605 5.52281 7.98259 4.85978 8.47482 4.37092C8.96706 3.88206 9.63467 3.60742 10.3308 3.60742C11.0269 3.60742 11.6945 3.88206 12.1868 4.37092C12.679 4.85978 12.9555 5.52281 12.9555 6.21416ZM11.2032 6.21541C11.2032 5.98578 11.1114 5.76556 10.9479 5.60319C10.7844 5.44082 10.5626 5.3496 10.3314 5.3496C10.1002 5.3496 9.87846 5.44082 9.71497 5.60319C9.55148 5.76556 9.45963 5.98578 9.45963 6.21541C9.45963 6.44503 9.55148 6.66526 9.71497 6.82763C9.87846 6.99 10.1002 7.08121 10.3314 7.08121C10.5626 7.08121 10.7844 6.99 10.9479 6.82763C11.1114 6.66526 11.2032 6.44503 11.2032 6.21541Z" fill="#1B2130"/>
<path d="M17.9578 25.3918L17.494 25.5882C17.4748 25.5965 17.4652 25.611 17.4652 25.6317V29.9259C17.4652 29.9337 17.4683 29.9411 17.4737 29.9466C17.4791 29.9521 17.4864 29.9552 17.494 29.9552C18.081 29.9657 18.6637 29.8781 18.9172 30.5531C19.0692 30.9577 18.8471 31.4226 18.4734 31.6035C18.3454 31.6656 18.1246 31.6969 17.8113 31.6973C16.9189 31.6994 16.0264 31.7 15.134 31.6992C14.1101 31.6986 13.8642 30.3076 14.8054 30.0086C15.0451 29.9322 15.3862 29.9595 15.6703 29.9576C15.6987 29.9572 15.7129 29.9429 15.7129 29.9147V25.6317C15.7129 25.611 15.7033 25.5965 15.6841 25.5882L15.2216 25.3937C15.2008 25.3845 15.1814 25.387 15.1634 25.4011C13.8696 26.3977 12.4196 26.9836 10.8133 27.1588C8.75428 27.3838 6.61957 26.6492 4.99742 25.3993C4.9799 25.386 4.96112 25.3835 4.94109 25.3918L4.47485 25.5888C4.46684 25.5923 4.46002 25.5981 4.45525 25.6054C4.45047 25.6126 4.44793 25.6211 4.44794 25.6298V29.9266C4.44794 29.9341 4.45097 29.9414 4.45637 29.9468C4.46177 29.9521 4.46909 29.9552 4.47673 29.9552C5.06313 29.9657 5.64641 29.8781 5.89987 30.5531C6.05194 30.9577 5.82977 31.4226 5.45615 31.6035C5.32807 31.6656 5.10736 31.6969 4.79402 31.6973C3.90159 31.6994 3.00915 31.7 2.11672 31.6992C1.09286 31.6986 0.846907 30.3076 1.78816 30.0086C2.02785 29.9322 2.36893 29.9595 2.65306 29.9576C2.68143 29.9572 2.69561 29.9429 2.69561 29.9147V25.6348C2.69561 25.6104 2.68435 25.5934 2.66182 25.5839C2.51224 25.5192 2.34139 25.462 2.21497 25.3906C0.758039 24.572 0.234218 22.7969 1.14605 21.3611C2.37081 19.4337 5.2052 19.6289 6.17085 21.67C6.52799 22.4246 6.533 23.2255 6.18587 24.0729C6.18287 24.0803 6.1824 24.0885 6.18456 24.0962C6.18671 24.1038 6.19136 24.1105 6.19776 24.1151C8.63851 25.9139 11.5161 25.9145 13.9612 24.1183C13.9701 24.1117 13.9765 24.1024 13.9793 24.0918C13.9822 24.0811 13.9813 24.0699 13.9768 24.0598C13.3535 22.6875 13.8786 21.0895 15.2028 20.3654C16.6423 19.5785 18.4321 20.1416 19.1594 21.5936C19.5444 22.3626 19.5599 23.1932 19.2057 24.0853C19.2036 24.0909 19.2033 24.097 19.205 24.1026C19.2067 24.1082 19.2103 24.1131 19.2151 24.1164C21.6602 25.9126 24.5309 25.9151 26.9797 24.1176C26.9939 24.1073 26.9977 24.0938 26.991 24.0772C26.6159 23.154 26.6455 22.2967 27.0799 21.5053C27.844 20.1124 29.5625 19.5934 30.9813 20.343C32.9333 21.3742 32.9984 24.1288 31.1346 25.2942C30.9513 25.4092 30.726 25.5018 30.5094 25.587C30.4915 25.5944 30.4825 25.6077 30.4825 25.6267V29.9259C30.4825 29.9337 30.4856 29.9411 30.4909 29.9466C30.4963 29.9521 30.5037 29.9552 30.5113 29.9552C31.0983 29.9657 31.681 29.8781 31.9344 30.5531C32.0865 30.9577 31.8644 31.4226 31.4907 31.6035C31.3626 31.6656 31.1419 31.6969 30.8286 31.6973C29.9362 31.6994 29.0437 31.7 28.1513 31.6992C27.1274 31.6986 26.8815 30.3076 27.8227 30.0086C28.0624 29.9322 28.4035 29.9595 28.6876 29.9576C28.716 29.9572 28.7302 29.9429 28.7302 29.9147V25.6317C28.7302 25.611 28.7206 25.5965 28.7014 25.5882L28.2389 25.3937C28.2185 25.385 28.1993 25.3874 28.1813 25.4011C26.8871 26.3972 25.4367 26.9834 23.8299 27.1595C21.7703 27.3857 19.6362 26.6461 18.011 25.3986C17.9947 25.3862 17.9769 25.3839 17.9578 25.3918ZM4.69389 22.8727C4.69389 22.7263 4.66487 22.5814 4.60848 22.4462C4.55208 22.311 4.46943 22.1882 4.36523 22.0847C4.26103 21.9812 4.13733 21.8991 4.00119 21.8431C3.86505 21.7871 3.71913 21.7583 3.57178 21.7583C3.27417 21.7583 2.98876 21.8757 2.77832 22.0847C2.56788 22.2937 2.44966 22.5771 2.44966 22.8727C2.44966 23.1683 2.56788 23.4517 2.77832 23.6607C2.98876 23.8697 3.27417 23.9871 3.57178 23.9871C3.71913 23.9871 3.86505 23.9583 4.00119 23.9023C4.13733 23.8463 4.26103 23.7642 4.36523 23.6607C4.46943 23.5572 4.55208 23.4344 4.60848 23.2992C4.66487 23.164 4.69389 23.019 4.69389 22.8727ZM17.7112 22.8727C17.7112 22.5771 17.593 22.2937 17.3825 22.0847C17.1721 21.8757 16.8867 21.7583 16.5891 21.7583C16.2915 21.7583 16.006 21.8757 15.7956 22.0847C15.5852 22.2937 15.4669 22.5771 15.4669 22.8727C15.4669 23.1683 15.5852 23.4517 15.7956 23.6607C16.006 23.8697 16.2915 23.9871 16.5891 23.9871C16.8867 23.9871 17.1721 23.8697 17.3825 23.6607C17.593 23.4517 17.7112 23.1683 17.7112 22.8727ZM30.7285 22.8727C30.7285 22.5771 30.6102 22.2937 30.3998 22.0847C30.1894 21.8757 29.904 21.7583 29.6064 21.7583C29.459 21.7583 29.3131 21.7871 29.1769 21.8431C29.0408 21.8991 28.9171 21.9812 28.8129 22.0847C28.7087 22.1882 28.626 22.311 28.5697 22.4462C28.5133 22.5814 28.4842 22.7263 28.4842 22.8727C28.4842 23.019 28.5133 23.164 28.5697 23.2992C28.626 23.4344 28.7087 23.5572 28.8129 23.6607C28.9171 23.7642 29.0408 23.8463 29.1769 23.9023C29.3131 23.9583 29.459 23.9871 29.6064 23.9871C29.904 23.9871 30.1894 23.8697 30.3998 23.6607C30.6102 23.4517 30.7285 23.1683 30.7285 22.8727Z" fill="#1B2130"/>
</g>
<defs>
<clipPath id="clip0_302_8425">
<rect width="32.0426" height="31.8229" fill="white" transform="translate(0.567871)"/>
</clipPath>
</defs>
</svg>
