<svg width="19" height="16" viewBox="0 0 19 16" fill="none" xmlns="http://www.w3.org/2000/svg">
<path opacity="0.16" d="M16.071 9.14196L10.414 14.8C10.0389 15.1749 9.53029 15.3855 8.99996 15.3855C8.46963 15.3855 7.96101 15.1749 7.58596 14.8L1.92896 9.14296C1.46133 8.67941 1.08986 8.12806 0.835887 7.52056C0.581911 6.91306 0.450428 6.26138 0.448987 5.60293C0.447545 4.94448 0.576172 4.29223 0.827485 3.68362C1.0788 3.07502 1.44784 2.52204 1.91344 2.05645C2.37904 1.59085 2.93201 1.2218 3.54062 0.97049C4.14922 0.719178 4.80147 0.59055 5.45992 0.591992C6.11837 0.593434 6.77006 0.724916 7.37755 0.978892C7.98505 1.23287 8.53641 1.60433 8.99996 2.07196C9.94153 1.15383 11.2069 0.643629 12.522 0.651869C13.8371 0.660109 15.096 1.18613 16.0259 2.11599C16.9559 3.04584 17.4821 4.30466 17.4906 5.61974C17.499 6.93482 16.989 8.20027 16.071 9.14196Z" fill="#D9D9D9"/>
<path d="M16.071 9.14195L10.414 14.8C10.0389 15.1749 9.53031 15.3855 8.99998 15.3855C8.46965 15.3855 7.96104 15.1749 7.58598 14.8L1.92898 9.14295C1.01085 8.20139 0.500647 6.93601 0.508887 5.62093C0.517127 4.30584 1.04315 3.04696 1.97301 2.11697C2.90286 1.18698 4.16167 0.660782 5.47675 0.652356C6.79183 0.64393 8.05729 1.15396 8.99898 2.07195C9.93666 1.13415 11.2085 0.607241 12.5346 0.607147C13.1913 0.607101 13.8415 0.736392 14.4482 0.987638C15.0549 1.23888 15.6061 1.60716 16.0705 2.07145C16.5348 2.53574 16.9032 3.08694 17.1545 3.69359C17.4059 4.30024 17.5352 4.95045 17.5353 5.6071C17.5353 6.26375 17.406 6.91398 17.1548 7.52066C16.9036 8.12734 16.5353 8.6776 16.071 9.14195Z" fill="#D9D9D9" stroke="#585A5E" stroke-linecap="round" stroke-linejoin="round"/>
</svg>
