<svg width="16" height="18" viewBox="0 0 16 18" fill="none" xmlns="http://www.w3.org/2000/svg">
<path d="M11.5 4.20001C11.5 6.13301 9.933 7.70001 8 7.70001C6.067 7.70001 4.5 6.13301 4.5 4.20001C4.5 2.26702 6.067 0.700012 8 0.700012C9.933 0.700012 11.5 2.26702 11.5 4.20001Z" fill="#D9D9D9" stroke="#585A5E"/>
<path d="M15.5 13.3C15.5 14.5859 15.4731 15.4517 14.6843 16.0942C14.2706 16.4311 13.6076 16.7373 12.5258 16.9563C11.4462 17.1748 9.98281 17.3 8 17.3C6.01719 17.3 4.55383 17.1748 3.4742 16.9563C2.39236 16.7373 1.72942 16.4311 1.31573 16.0942C0.526872 15.4517 0.5 14.5859 0.5 13.3C0.5 12.3184 1.21277 11.3277 2.58838 10.5539C3.9483 9.78893 5.86062 9.29999 8 9.29999C10.1394 9.29999 12.0517 9.78893 13.4116 10.5539C14.7872 11.3277 15.5 12.3184 15.5 13.3Z" fill="#D9D9D9" stroke="#585A5E"/>
</svg>
