<svg width="24" height="29" viewBox="0 0 24 29" fill="none" xmlns="http://www.w3.org/2000/svg">
<path d="M12.0212 16.2373C14.2333 16.2373 16.0265 14.4564 16.0265 12.2595C16.0265 10.0626 14.2333 8.28162 12.0212 8.28162C9.80911 8.28162 8.01587 10.0626 8.01587 12.2595C8.01587 14.4564 9.80911 16.2373 12.0212 16.2373Z" stroke="#1B2130" stroke-width="1.5" stroke-linecap="round" stroke-linejoin="round"/>
<path d="M12.0212 1.65186C9.18845 1.65186 6.47173 2.76944 4.46868 4.75876C2.46563 6.74808 1.34033 9.44617 1.34033 12.2595C1.34033 14.7682 1.87704 16.4097 3.34299 18.2263L12.0212 28.1709L20.6994 18.2263C22.1653 16.4097 22.702 14.7682 22.702 12.2595C22.702 9.44617 21.5767 6.74808 19.5737 4.75876C17.5706 2.76944 14.8539 1.65186 12.0212 1.65186Z" stroke="#1B2130" stroke-width="1.5" stroke-linecap="round" stroke-linejoin="round"/>
</svg>
