<svg width="16" height="21" viewBox="0 0 16 21" fill="none" xmlns="http://www.w3.org/2000/svg">
<path d="M0 0H16V20.3636L8 16.6612L0 20.3636V0Z" fill="#6F23D9"/>
<g clip-path="url(#clip0_254_2416)">
<path d="M10.744 6.7893C10.8163 6.71175 10.8556 6.60918 10.8538 6.50319C10.8519 6.39721 10.809 6.29609 10.734 6.22114C10.6591 6.14619 10.5579 6.10325 10.452 6.10138C10.346 6.09951 10.2434 6.13885 10.1659 6.21111L7.18222 9.19475L5.83495 7.84748C5.7574 7.77522 5.65483 7.73588 5.54885 7.73775C5.44286 7.73962 5.34175 7.78255 5.26679 7.8575C5.19184 7.93246 5.14891 8.03357 5.14704 8.13956C5.14517 8.24554 5.18451 8.34811 5.25677 8.42566L6.89313 10.062C6.96984 10.1386 7.07381 10.1817 7.18222 10.1817C7.29063 10.1817 7.39461 10.1386 7.47131 10.062L10.744 6.7893Z" fill="white"/>
<path d="M9.16546 2.10946L9.91546 2.66037C10.0649 2.77001 10.2389 2.84201 10.4222 2.86982L11.3424 3.0111C11.7565 3.07474 12.1396 3.26886 12.4359 3.56522C12.7321 3.86157 12.9261 4.24471 12.9896 4.65892L13.1309 5.57855C13.1587 5.76182 13.2307 5.93582 13.3404 6.08528L13.8913 6.83528C14.1392 7.17313 14.273 7.58128 14.273 8.00037C14.273 8.41945 14.1392 8.82761 13.8913 9.16546L13.3404 9.91546C13.2307 10.065 13.1588 10.2388 13.1309 10.4222L12.9896 11.3424C12.926 11.7566 12.7319 12.1396 12.4355 12.4359C12.1392 12.7321 11.756 12.9261 11.3418 12.9896L10.4222 13.1309C10.2388 13.1588 10.065 13.2307 9.91546 13.3404L9.16546 13.8913C8.82761 14.1392 8.41945 14.273 8.00037 14.273C7.58128 14.273 7.17313 14.1392 6.83528 13.8913L6.08528 13.3404C5.93575 13.2307 5.76189 13.1588 5.57855 13.1309L4.65837 12.9896C4.24419 12.926 3.86111 12.7319 3.56485 12.4355C3.2686 12.1392 3.07461 11.756 3.0111 11.3418L2.86982 10.4222C2.8417 10.2389 2.76986 10.0651 2.66037 9.91546L2.10946 9.16546C1.86149 8.82761 1.72778 8.41945 1.72778 8.00037C1.72778 7.58128 1.86149 7.17313 2.10946 6.83528L2.66037 6.08528C2.77001 5.93582 2.84201 5.76182 2.86982 5.57855L3.0111 4.65837C3.07474 4.24419 3.26886 3.86111 3.56522 3.56485C3.86157 3.2686 4.24471 3.07461 4.65891 3.0111L5.57855 2.86982C5.76182 2.84201 5.93582 2.77001 6.08528 2.66037L6.83528 2.10946C7.17313 1.86149 7.58128 1.72778 8.00037 1.72778C8.41945 1.72778 8.82761 1.86149 9.16546 2.10946ZM7.31964 2.76891L6.56964 3.31982C6.31366 3.50754 6.01614 3.63067 5.70237 3.67873L4.78273 3.81946C4.54058 3.85666 4.3166 3.97013 4.14336 4.14336C3.97013 4.3166 3.85666 4.54058 3.81946 4.78273L3.67873 5.70237C3.63067 6.01597 3.50754 6.31332 3.31982 6.5691L2.76891 7.31964C2.6241 7.51707 2.54602 7.75553 2.54602 8.00037C2.54602 8.24521 2.6241 8.48367 2.76891 8.6811L3.31982 9.4311C3.50746 9.68692 3.63073 9.98473 3.67873 10.2984L3.81946 11.218C3.89582 11.7149 4.28582 12.1049 4.78273 12.1813L5.70237 12.322C6.01597 12.3701 6.31332 12.4932 6.5691 12.6809L7.31964 13.2318C7.51706 13.3766 7.75553 13.4547 8.00037 13.4547C8.24521 13.4547 8.48367 13.3766 8.6811 13.2318L9.4311 12.6809C9.68712 12.4934 9.98464 12.3704 10.2984 12.3226L11.218 12.1807C11.4601 12.1436 11.6841 12.0303 11.8573 11.8571C12.0306 11.684 12.1441 11.4601 12.1813 11.218L12.322 10.2984C12.3701 9.98477 12.4932 9.68742 12.6809 9.43164L13.2318 8.6811C13.3766 8.48367 13.4547 8.24521 13.4547 8.00037C13.4547 7.75553 13.3766 7.51707 13.2318 7.31964L12.6809 6.56964C12.4934 6.31362 12.3704 6.0161 12.3226 5.70237L12.1807 4.78273C12.1436 4.54062 12.0303 4.31666 11.8571 4.14342C11.684 3.97017 11.4601 3.85668 11.218 3.81946L10.2984 3.67873C9.98476 3.63067 9.68742 3.50754 9.43164 3.31982L8.6811 2.76891C8.48367 2.6241 8.24521 2.54602 8.00037 2.54602C7.75553 2.54602 7.51706 2.6241 7.31964 2.76891Z" fill="white"/>
</g>
<defs>
<clipPath id="clip0_254_2416">
<rect width="13.0909" height="13.0909" fill="white" transform="translate(1.45483 1.45483)"/>
</clipPath>
</defs>
</svg>
