<svg width="20" height="20" viewBox="0 0 20 20" fill="none" xmlns="http://www.w3.org/2000/svg">
<path fill-rule="evenodd" clip-rule="evenodd" d="M10 1.66667C7.23862 1.66667 5.00004 3.90524 5.00004 6.66667C5.00004 9.42809 7.23862 11.6667 10 11.6667C12.7615 11.6667 15 9.42809 15 6.66667C15 3.90524 12.7615 1.66667 10 1.66667ZM3.33337 6.66667C3.33337 2.98477 6.31814 0 10 0C13.6819 0 16.6667 2.98477 16.6667 6.66667C16.6667 10.3486 13.6819 13.3333 10 13.3333C6.31814 13.3333 3.33337 10.3486 3.33337 6.66667Z" fill="#585A5E"/>
<path fill-rule="evenodd" clip-rule="evenodd" d="M13.0488 10.7406C13.505 10.68 13.9239 11.0008 13.9844 11.4571L14.9928 19.0571C15.0349 19.3743 14.8916 19.6875 14.6242 19.8632C14.3567 20.0389 14.0123 20.0459 13.7379 19.8813L10 17.6385L6.2621 19.8813C5.98771 20.0459 5.64327 20.0389 5.37582 19.8632C5.10837 19.6875 4.96514 19.3742 5.00727 19.057L6.01561 11.4653C6.07621 11.0091 6.49518 10.6883 6.95141 10.7489C7.40764 10.8095 7.72836 11.2285 7.66777 11.6847L6.88706 17.5626L9.57127 15.9521C9.83518 15.7938 10.1649 15.7938 10.4288 15.9521L13.1133 17.5628L12.3323 11.6763C12.2717 11.22 12.5925 10.8011 13.0488 10.7406Z" fill="#585A5E"/>
</svg>
