<svg width="14" height="15" viewBox="0 0 14 15" fill="none" xmlns="http://www.w3.org/2000/svg">
<path d="M10.0422 1.12061H3.92455C2.2352 1.12061 0.865723 2.49009 0.865723 4.17943V10.2971C0.865723 11.9864 2.2352 13.3559 3.92455 13.3559H10.0422C11.7315 13.3559 13.101 11.9864 13.101 10.2971V4.17943C13.101 2.49009 11.7315 1.12061 10.0422 1.12061Z" stroke="#1B2130" stroke-width="1.75" stroke-linecap="round" stroke-linejoin="round"/>
<path d="M9.4304 6.85277C9.50589 7.36191 9.41893 7.88189 9.18187 8.33875C8.94481 8.79562 8.56973 9.1661 8.10998 9.39751C7.65023 9.62891 7.12921 9.70946 6.62104 9.62769C6.11287 9.54592 5.64343 9.30599 5.27947 8.94204C4.91552 8.57809 4.6756 8.10864 4.59383 7.60047C4.51205 7.0923 4.5926 6.57129 4.82401 6.11154C5.05541 5.65178 5.4259 5.2767 5.88276 5.03964C6.33963 4.80259 6.85961 4.71562 7.36875 4.79112C7.88809 4.86813 8.36889 5.11013 8.74014 5.48138C9.11138 5.85262 9.35338 6.33343 9.4304 6.85277Z" stroke="#1B2130" stroke-width="1.75" stroke-linecap="round" stroke-linejoin="round"/>
<path d="M10.3481 3.87402H10.3547" stroke="#1B2130" stroke-width="1.75" stroke-linecap="round" stroke-linejoin="round"/>
</svg>
