<svg width="14" height="15" viewBox="0 0 14 15" fill="none" xmlns="http://www.w3.org/2000/svg">
<path d="M3.16562 14.356H0.311841V5.16602H3.16562V14.356ZM1.7372 3.91243C0.824649 3.91243 0.0844727 3.15658 0.0844727 2.24403C0.0844727 1.8057 0.258598 1.38533 0.568544 1.07538C0.87849 0.765434 1.29887 0.591309 1.7372 0.591309C2.17553 0.591309 2.5959 0.765434 2.90585 1.07538C3.21579 1.38533 3.38992 1.8057 3.38992 2.24403C3.38992 3.15658 2.64944 3.91243 1.7372 3.91243ZM13.8464 14.356H10.9988V9.88238C10.9988 8.81621 10.9773 7.44893 9.51504 7.44893C8.03131 7.44893 7.80394 8.60728 7.80394 9.80557V14.356H4.95323V5.16602H7.69026V6.41962H7.7302C8.1112 5.69758 9.04187 4.93558 10.4304 4.93558C13.3186 4.93558 13.8495 6.83749 13.8495 9.30782V14.356H13.8464Z" fill="#1B2130"/>
</svg>
