<svg width="33" height="32" viewBox="0 0 33 32" fill="none" xmlns="http://www.w3.org/2000/svg">
<g clip-path="url(#clip0_302_8545)">
<path d="M9.3457 9.28174H18.2464V11.6685H9.3457V9.28174ZM9.3457 14.0552H22.6968V16.4419H9.3457V14.0552ZM9.3457 18.8286H12.6723V21.2153H9.3457V18.8286Z" stroke="#1B2130"/>
<path d="M18.4245 4.9723L14.8197 1.32593V3.75684H6.40856C5.7712 3.75684 5.15994 4.01296 4.70925 4.46884C4.25856 4.92473 4.00537 5.54304 4.00537 6.18776V25.6351C4.00537 26.2798 4.25856 26.8981 4.70925 27.354C5.15994 27.8099 5.7712 28.066 6.40856 28.066H11.2149V25.6351H6.40856V6.18776H14.8197V8.61868L18.4245 4.9723ZM13.6181 26.8505L17.2229 30.4969V28.066H25.6341C26.2715 28.066 26.8827 27.8099 27.3334 27.354C27.7841 26.8981 28.0373 26.2798 28.0373 25.6351V6.18776C28.0373 5.54304 27.7841 4.92473 27.3334 4.46884C26.8827 4.01296 26.2715 3.75684 25.6341 3.75684H20.8277V6.18776H25.6341V25.6351H17.2229V23.2042L13.6181 26.8505Z" stroke="#1B2130"/>
</g>
<defs>
<clipPath id="clip0_302_8545">
<rect width="32.0426" height="31.8229" fill="white"/>
</clipPath>
</defs>
</svg>
