<svg width="28" height="22" viewBox="0 0 28 22" fill="none" xmlns="http://www.w3.org/2000/svg">
<path d="M1.00391 15.8838L7.89172 9.04318C8.17067 8.76615 8.50183 8.54639 8.86629 8.39646C9.23075 8.24652 9.62138 8.16935 10.0159 8.16935C10.4104 8.16935 10.801 8.24652 11.1655 8.39646C11.5299 8.54639 11.8611 8.76615 12.14 9.04318L19.0278 15.8838M17.0252 13.8949L18.9064 12.0266C19.1853 11.7495 19.5165 11.5298 19.8809 11.3799C20.2454 11.2299 20.636 11.1528 21.0305 11.1528C21.425 11.1528 21.8156 11.2299 22.1801 11.3799C22.5446 11.5298 22.8757 11.7495 23.1547 12.0266L27.0385 15.8838M3.00657 20.8561H25.0358C25.567 20.8561 26.0763 20.6466 26.4519 20.2736C26.8275 19.9006 27.0385 19.3947 27.0385 18.8672V2.95573C27.0385 2.42823 26.8275 1.92234 26.4519 1.54934C26.0763 1.17634 25.567 0.966797 25.0358 0.966797H3.00657C2.47543 0.966797 1.96604 1.17634 1.59047 1.54934C1.2149 1.92234 1.00391 2.42823 1.00391 2.95573V18.8672C1.00391 19.3947 1.2149 19.9006 1.59047 20.2736C1.96604 20.6466 2.47543 20.8561 3.00657 20.8561ZM17.0252 5.93913H17.0359V5.94973H17.0252V5.93913ZM17.5259 5.93913C17.5259 6.071 17.4731 6.19747 17.3792 6.29072C17.2853 6.38397 17.158 6.43636 17.0252 6.43636C16.8924 6.43636 16.7651 6.38397 16.6712 6.29072C16.5773 6.19747 16.5245 6.071 16.5245 5.93913C16.5245 5.80725 16.5773 5.68078 16.6712 5.58753C16.7651 5.49428 16.8924 5.44189 17.0252 5.44189C17.158 5.44189 17.2853 5.49428 17.3792 5.58753C17.4731 5.68078 17.5259 5.80725 17.5259 5.93913Z" stroke="#1B2130" stroke-width="1.5" stroke-linecap="round" stroke-linejoin="round"/>
</svg>
