<svg width="16" height="21" viewBox="0 0 16 21" fill="none" xmlns="http://www.w3.org/2000/svg">
<path d="M0 0H16V20.3636L8 16.6612L0 20.3636V0Z" fill="#6F23D9"/>
<g clip-path="url(#clip0_254_2415)">
<path d="M8.09051 9.6919L8.61892 10.2203L7.63759 11.2016H10.7326V11.9565H7.63759L8.61892 12.9378L8.09051 13.4663L6.20333 11.5791L8.09051 9.6919ZM4.79248 10.5687L7.80819 7.55298L8.34226 8.08667L5.32655 11.1024L4.79248 10.5687Z" fill="white"/>
<path d="M10.7325 10.0695H9.97765V8.18228C9.97765 8.06905 10.0154 7.99356 10.0909 7.91807L11.6384 6.37059C12.28 5.72895 12.6197 4.86085 12.6197 3.95501V3.27562H11.9026C10.9967 3.27562 10.1286 3.61531 9.48698 4.25695L7.9395 5.80444C7.90176 5.87992 7.82627 5.91767 7.71304 5.91767H4.88228L3.90095 7.1632L5.90135 7.46515L5.78812 8.22002L3.14608 7.84259C2.9951 7.80484 2.88187 7.72936 2.84413 7.61613C2.80638 7.5029 2.80638 7.35192 2.88187 7.23869L4.39161 5.35152C4.4671 5.20054 4.58033 5.1628 4.69356 5.1628H7.56207L8.99632 3.72854C9.75119 2.93593 10.808 2.52075 11.9026 2.52075H12.6197C13.0349 2.52075 13.3746 2.86044 13.3746 3.27562V3.99275C13.3746 5.08731 12.9594 6.14413 12.1668 6.93674L10.7325 8.33325V10.0695Z" fill="white"/>
</g>
<defs>
<clipPath id="clip0_254_2415">
<rect width="12.0779" height="12.0779" fill="white" transform="translate(2.05151 1.76587)"/>
</clipPath>
</defs>
</svg>
