<svg width="33" height="32" viewBox="0 0 33 32" fill="none" xmlns="http://www.w3.org/2000/svg">
<g clip-path="url(#clip0_302_8519)">
<path d="M15.5388 0H15.9468C16.1471 0.0136739 16.3434 0.0412289 16.5357 0.082665C18.176 0.434457 18.9333 2.10205 18.059 3.54713C17.7736 4.01951 17.4088 4.42661 17.1897 5.07675C16.9744 5.71528 16.9684 6.34863 17.1716 6.9768C17.174 6.98437 17.1781 6.9913 17.1836 6.99704C17.1891 7.00279 17.1959 7.00721 17.2034 7.00997C17.211 7.01272 17.2191 7.01374 17.2271 7.01295C17.2351 7.01216 17.2429 7.00957 17.2498 7.00539C19.6634 5.52446 22.1753 4.22565 24.7854 3.10895C25.9211 2.6229 27.0862 2.22346 28.2807 1.91062C29.0411 1.7111 29.9567 1.54018 30.7277 1.71483C31.3585 1.85779 31.7941 2.28976 31.7791 2.94797C31.7497 4.24823 29.8196 5.93945 28.8652 6.72756C27.75 7.64868 26.5918 8.506 25.3906 9.2995C25.3863 9.30237 25.383 9.30643 25.381 9.31119C25.379 9.31594 25.3785 9.32117 25.3795 9.32622C25.3805 9.33126 25.383 9.3359 25.3866 9.33955C25.3903 9.3432 25.3949 9.3457 25.4 9.34673C30.187 10.2529 32.4356 14.4005 31.8248 18.9887C31.0488 24.8138 26.718 29.5294 21.0899 31.1386C19.5516 31.5786 17.9647 31.8067 16.3292 31.8229H15.9087C6.48363 31.5942 -0.578871 23.6956 0.185269 14.4036C0.587678 9.50647 3.43834 5.14263 7.55255 2.48119C9.9691 0.918223 12.6312 0.0911594 15.5388 0ZM15.8029 1.24868C9.93509 1.2667 4.66622 5.06369 2.44389 10.3717C0.785441 14.3327 1.09272 18.9744 3.09413 22.7521C6.64009 29.4449 14.7033 32.2412 21.7602 29.5854C26.35 27.8587 29.8728 23.838 30.5706 18.957C30.8685 16.8699 30.4911 14.5422 29.1788 12.8665C27.8652 11.1896 25.8306 10.4829 23.6946 10.4208C23.675 10.4199 23.6571 10.4247 23.6408 10.4351C20.1624 12.5769 16.3624 14.5434 12.4115 15.7312C12.3906 15.7374 12.3777 15.7509 12.3727 15.7716C12.0911 16.8786 11.2706 17.7972 10.1178 18.0315C8.49318 18.3616 6.75587 18.3019 5.11056 18.1875C4.72067 18.1602 4.3896 18.0166 4.37521 17.6002C4.37104 17.4701 4.42361 17.295 4.53292 17.075C5.25075 15.633 6.10563 13.9934 7.18582 12.8547C7.97061 12.0268 9.20287 11.7751 10.273 12.1169C10.2907 12.1226 10.3095 12.1234 10.3274 12.1194C10.3454 12.1153 10.3618 12.1065 10.3751 12.0939C12.093 10.4438 14.0562 9.02913 16.0632 7.73756C16.0781 7.72795 16.0892 7.71348 16.0945 7.6966C16.0999 7.67972 16.0992 7.66148 16.0926 7.64495C15.5369 6.28067 15.7572 4.78152 16.5576 3.55832C16.7685 3.23636 17.0714 2.85039 17.1447 2.50543C17.3268 1.64584 16.5389 1.24681 15.8029 1.24868ZM28.8803 5.04878C29.4911 4.49871 30.2302 3.72862 30.5212 2.99334C30.5251 2.98371 30.5266 2.97331 30.5256 2.96298C30.5247 2.95266 30.5213 2.9427 30.5158 2.93392C30.5102 2.92513 30.5026 2.91778 30.4937 2.91244C30.4847 2.90711 30.4746 2.90395 30.4642 2.90322C29.2339 2.81185 27.837 3.27614 26.6961 3.70438C23.0982 5.05561 19.6874 6.89289 16.4625 8.96387C16.458 8.96672 16.4542 8.97051 16.4513 8.97498C16.4484 8.97945 16.4465 8.9845 16.4457 8.9898C16.445 8.99509 16.4453 9.00051 16.4468 9.00568C16.4483 9.01086 16.4509 9.01567 16.4544 9.0198C17.22 9.91648 17.7985 10.9201 18.1898 12.0305C18.1909 12.0335 18.1926 12.0362 18.1948 12.0385C18.197 12.0408 18.1997 12.0426 18.2026 12.0437C18.2056 12.0449 18.2088 12.0455 18.212 12.0453C18.2151 12.0452 18.2183 12.0444 18.2211 12.043C21.059 10.6172 23.7649 8.97132 26.3388 7.10546C27.2228 6.46444 28.07 5.77888 28.8803 5.04878ZM12.4215 14.4334C14.004 13.9387 15.5417 13.3312 17.0345 12.6111C17.052 12.6028 17.0579 12.5893 17.052 12.5707C16.6987 11.5095 16.1509 10.5598 15.4086 9.72152C15.4016 9.71361 15.3919 9.70848 15.3814 9.70711C15.3709 9.70574 15.3603 9.70821 15.3517 9.71406C13.9836 10.6356 12.6898 11.6502 11.4703 12.7578C11.4661 12.7615 11.4627 12.7661 11.4604 12.7711C11.4581 12.7762 11.4568 12.7817 11.4567 12.7873C11.4566 12.7929 11.4576 12.7985 11.4597 12.8036C11.4618 12.8088 11.465 12.8135 11.469 12.8174C11.9271 13.2575 12.2279 13.7866 12.3715 14.4048C12.3727 14.4101 12.375 14.415 12.3782 14.4193C12.3814 14.4237 12.3855 14.4273 12.3902 14.43C12.3949 14.4326 12.4001 14.4343 12.4055 14.4349C12.4109 14.4355 12.4163 14.435 12.4215 14.4334ZM10.8188 16.1787C11.735 14.9543 10.8632 13.2065 9.32241 13.2158C8.72495 13.2196 8.24326 13.4626 7.87736 13.9449C7.15599 14.8946 6.52786 15.9038 5.99298 16.9724C5.99139 16.9754 5.99062 16.9788 5.99075 16.9822C5.99088 16.9856 5.9919 16.9889 5.99372 16.9918C5.99553 16.9947 5.99809 16.9972 6.00114 16.9989C6.00418 17.0006 6.00762 17.0016 6.01113 17.0016C7.17518 17.0085 8.19341 17.0476 9.46071 16.8991C10.059 16.8295 10.5117 16.5893 10.8188 16.1787Z" fill="#1B2130"/>
<path d="M13.6269 6.32971C13.6269 6.65473 13.5625 6.97657 13.4372 7.27684C13.312 7.57712 13.1284 7.84996 12.897 8.07979C12.6656 8.30961 12.3909 8.49191 12.0886 8.61629C11.7862 8.74067 11.4621 8.80469 11.1349 8.80469C10.4739 8.80469 9.84008 8.54393 9.37273 8.07979C8.90538 7.61564 8.64282 6.98612 8.64282 6.32971C8.64282 5.67331 8.90538 5.04379 9.37273 4.57964C9.84008 4.11549 10.4739 3.85474 11.1349 3.85474C11.4621 3.85474 11.7862 3.91875 12.0886 4.04313C12.3909 4.16751 12.6656 4.34982 12.897 4.57964C13.1284 4.80946 13.312 5.0823 13.4372 5.38258C13.5625 5.68286 13.6269 6.00469 13.6269 6.32971ZM12.3797 6.32971C12.3797 6.00184 12.2485 5.6874 12.0151 5.45556C11.7816 5.22371 11.465 5.09347 11.1349 5.09347C10.8047 5.09347 10.4881 5.22371 10.2547 5.45556C10.0212 5.6874 9.8901 6.00184 9.8901 6.32971C9.8901 6.65759 10.0212 6.97203 10.2547 7.20387C10.4881 7.43571 10.8047 7.56596 11.1349 7.56596C11.465 7.56596 11.7816 7.43571 12.0151 7.20387C12.2485 6.97203 12.3797 6.65759 12.3797 6.32971Z" fill="#1B2130"/>
<path d="M21.1474 15.2787C21.4872 15.2787 21.7626 15.0052 21.7626 14.6677C21.7626 14.3303 21.4872 14.0568 21.1474 14.0568C20.8077 14.0568 20.5322 14.3303 20.5322 14.6677C20.5322 15.0052 20.8077 15.2787 21.1474 15.2787Z" fill="#1B2130"/>
<path d="M29.2727 19.302C29.2727 19.9584 29.0101 20.5879 28.5428 21.0521C28.0754 21.5162 27.4416 21.777 26.7806 21.777C26.1197 21.777 25.4858 21.5162 25.0185 21.0521C24.5511 20.5879 24.2886 19.9584 24.2886 19.302C24.2886 18.6456 24.5511 18.0161 25.0185 17.5519C25.4858 17.0878 26.1197 16.827 26.7806 16.827C27.4416 16.827 28.0754 17.0878 28.5428 17.5519C29.0101 18.0161 29.2727 18.6456 29.2727 19.302ZM28.0248 19.3026C28.0248 18.9749 27.8937 18.6606 27.6604 18.4289C27.4271 18.1972 27.1106 18.067 26.7806 18.067C26.4507 18.067 26.1342 18.1972 25.9009 18.4289C25.6676 18.6606 25.5365 18.9749 25.5365 19.3026C25.5365 19.6303 25.6676 19.9446 25.9009 20.1763C26.1342 20.4081 26.4507 20.5382 26.7806 20.5382C27.1106 20.5382 27.4271 20.4081 27.6604 20.1763C27.8937 19.9446 28.0248 19.6303 28.0248 19.3026Z" fill="#1B2130"/>
<path d="M21.2719 17.3479C21.7025 17.4032 21.8189 17.8109 21.7482 18.1757C21.4691 19.6165 20.4271 20.66 19.1247 21.2598C16.8129 22.3245 13.7801 22.0598 11.9727 20.151C11.5346 19.6886 11.9746 18.9098 12.6054 19.1304C12.7001 19.1636 12.8251 19.2533 12.9803 19.3996C14.3233 20.6644 16.3222 20.9062 18.0307 20.3685C19.007 20.0615 19.9502 19.4052 20.3657 18.4586C20.5791 17.9725 20.5247 17.2515 21.2719 17.3479Z" fill="#1B2130"/>
<path d="M10.4978 23.0312C10.4978 23.6877 10.2352 24.3172 9.76788 24.7813C9.30053 25.2455 8.66667 25.5062 8.00573 25.5062C7.3448 25.5062 6.71093 25.2455 6.24358 24.7813C5.77623 24.3172 5.51367 23.6877 5.51367 23.0312C5.51367 22.3748 5.77623 21.7453 6.24358 21.2812C6.71093 20.817 7.3448 20.5563 8.00573 20.5563C8.66667 20.5563 9.30053 20.817 9.76788 21.2812C10.2352 21.7453 10.4978 22.3748 10.4978 23.0312ZM9.24988 23.0319C9.24988 22.704 9.11874 22.3896 8.8853 22.1577C8.65186 21.9259 8.33524 21.7956 8.00511 21.7956C7.67497 21.7956 7.35836 21.9259 7.12492 22.1577C6.89147 22.3896 6.76033 22.704 6.76033 23.0319C6.76033 23.3597 6.89147 23.6742 7.12492 23.906C7.35836 24.1379 7.67497 24.2681 8.00511 24.2681C8.33524 24.2681 8.65186 24.1379 8.8853 23.906C9.11874 23.6742 9.24988 23.3597 9.24988 23.0319Z" fill="#1B2130"/>
<path d="M24.2661 25.5173C24.2661 26.1737 24.0035 26.8033 23.5362 27.2674C23.0688 27.7316 22.435 27.9923 21.774 27.9923C21.1131 27.9923 20.4792 27.7316 20.0119 27.2674C19.5445 26.8033 19.282 26.1737 19.282 25.5173C19.282 24.8609 19.5445 24.2314 20.0119 23.7673C20.4792 23.3031 21.1131 23.0424 21.774 23.0424C22.435 23.0424 23.0688 23.3031 23.5362 23.7673C24.0035 24.2314 24.2661 24.8609 24.2661 25.5173ZM23.0182 25.518C23.0182 25.1902 22.8871 24.876 22.6538 24.6442C22.4205 24.4125 22.104 24.2823 21.774 24.2823C21.4441 24.2823 21.1276 24.4125 20.8943 24.6442C20.661 24.876 20.5299 25.1902 20.5299 25.518C20.5299 25.8457 20.661 26.1599 20.8943 26.3917C21.1276 26.6234 21.4441 26.7536 21.774 26.7536C22.104 26.7536 22.4205 26.6234 22.6538 26.3917C22.8871 26.1599 23.0182 25.8457 23.0182 25.518Z" fill="#1B2130"/>
<path d="M16.7561 26.7605C16.7561 27.0855 16.6916 27.4074 16.5664 27.7076C16.4412 28.0079 16.2576 28.2807 16.0262 28.5106C15.7948 28.7404 15.5201 28.9227 15.2177 29.0471C14.9154 29.1715 14.5913 29.2355 14.264 29.2355C13.6031 29.2355 12.9692 28.9747 12.5019 28.5106C12.0345 28.0464 11.772 27.4169 11.772 26.7605C11.772 26.1041 12.0345 25.4746 12.5019 25.0104C12.9692 24.5463 13.6031 24.2855 14.264 24.2855C14.5913 24.2855 14.9154 24.3495 15.2177 24.4739C15.5201 24.5983 15.7948 24.7806 16.0262 25.0104C16.2576 25.2402 16.4412 25.5131 16.5664 25.8134C16.6916 26.1136 16.7561 26.4355 16.7561 26.7605ZM15.5082 26.7611C15.5082 26.5989 15.476 26.4382 15.4135 26.2883C15.351 26.1384 15.2593 26.0021 15.1438 25.8874C15.0283 25.7727 14.8911 25.6816 14.7401 25.6196C14.5892 25.5575 14.4274 25.5255 14.264 25.5255C13.9341 25.5255 13.6176 25.6557 13.3843 25.8874C13.151 26.1191 13.0199 26.4334 13.0199 26.7611C13.0199 27.0888 13.151 27.4031 13.3843 27.6348C13.6176 27.8666 13.9341 27.9967 14.264 27.9967C14.4274 27.9967 14.5892 27.9648 14.7401 27.9027C14.8911 27.8406 15.0283 27.7496 15.1438 27.6348C15.2593 27.5201 15.351 27.3839 15.4135 27.234C15.476 27.0841 15.5082 26.9234 15.5082 26.7611Z" fill="#1B2130"/>
</g>
<defs>
<clipPath id="clip0_302_8519">
<rect width="32.0426" height="31.8229" fill="white"/>
</clipPath>
</defs>
</svg>
