<svg width="33" height="32" viewBox="0 0 33 32" fill="none" xmlns="http://www.w3.org/2000/svg">
<path d="M20.1518 25.8561C20.1518 28.0533 18.8595 29.834 16.6471 29.834H8.38616C6.17385 29.834 4.88151 28.0533 4.88151 25.8561M21.028 20.8838C22.1338 20.8838 23.0306 21.997 23.0306 23.37C23.0306 24.7429 22.1338 25.8561 21.028 25.8561H4.00535C2.8995 25.8561 2.00269 24.7429 2.00269 23.37C2.00269 21.997 2.8995 20.8838 4.00535 20.8838" stroke="#1B2130" stroke-width="1.2" stroke-miterlimit="10" stroke-linecap="round"/>
<path d="M4.00535 17.1545V17.1408C4.00535 13.7224 6.82159 11.9336 10.2637 11.9336H14.7696C18.2117 11.9336 21.028 13.736 21.028 17.1545V17.1408M15.0826 6.96124L15.5482 10.9372M21.5286 20.8838H11.2218C11.0892 20.8838 10.962 20.9361 10.8682 21.0292L9.18911 22.6968C9.16586 22.7199 9.13825 22.7383 9.10786 22.7508C9.07747 22.7633 9.04489 22.7697 9.012 22.7697C8.9791 22.7697 8.94652 22.7633 8.91613 22.7508C8.88574 22.7383 8.85813 22.7199 8.83489 22.6968L7.15578 21.0292C7.06196 20.9361 6.93479 20.8838 6.80219 20.8838H3.50468C3.10633 20.8838 2.72429 20.7266 2.44261 20.4469C2.16093 20.1671 2.00269 19.7877 2.00269 19.3921C2.00269 18.9964 2.16093 18.617 2.44261 18.3373C2.72429 18.0575 3.10633 17.9004 3.50468 17.9004H21.5286C21.927 17.9004 22.309 18.0575 22.5907 18.3373C22.8724 18.617 23.0306 18.9964 23.0306 19.3921C23.0306 19.7877 22.8724 20.1671 22.5907 20.4469C22.309 20.7266 21.927 20.8838 21.5286 20.8838Z" stroke="#1B2130" stroke-width="1.2" stroke-miterlimit="10" stroke-linecap="round"/>
<path d="M16.0212 29.834H24.7397C25.2449 29.8339 25.7315 29.6443 26.1019 29.303C26.4722 28.9617 26.699 28.4939 26.7367 27.9936L28.9759 6.96124" stroke="#1B2130" stroke-width="1.2" stroke-miterlimit="10" stroke-linecap="round"/>
<path d="M23.0305 6.96128L24.0318 2.98342L26.9733 1.98895" stroke="#1B2130" stroke-width="1.2" stroke-linecap="round" stroke-linejoin="round"/>
<path d="M14.0186 6.96124H30.0398" stroke="#1B2130" stroke-width="1.2" stroke-miterlimit="10" stroke-linecap="round"/>
</svg>
