<svg width="40" height="40" viewBox="0 0 40 40" fill="none" xmlns="http://www.w3.org/2000/svg">
<path d="M35.5556 40H4.44445C3.22223 40 2.17556 39.5644 1.30445 38.6933C0.433337 37.8222 -0.00147771 36.7763 3.77287e-06 35.5556V4.44445C3.77287e-06 3.22223 0.435559 2.17556 1.30667 1.30445C2.17778 0.433337 3.22371 -0.00147771 4.44445 3.77287e-06H35.5556C36.7778 3.77287e-06 37.8244 0.435559 38.6956 1.30667C39.5667 2.17778 40.0015 3.22371 40 4.44445V35.5556C40 36.7778 39.5644 37.8244 38.6933 38.6956C37.8222 39.5667 36.7763 40.0015 35.5556 40ZM6.66667 24.4444H33.3333V20H6.66667V24.4444ZM6.66667 31.1111H33.3333V27.7778H6.66667V31.1111Z" fill="#6F23D9"/>
</svg>
